<svg width="256" height="256" viewBox="0 0 200 200" fill="none" xmlns="http://www.w3.org/2000/svg">
  <g stroke="#18d2f1" stroke-width="12" fill="none" stroke-linecap="square">
    <line x1="100" y1="35" x2="100" y2="55" />
    <line x1="70" y1="42" x2="80" y2="58" />
    <line x1="130" y1="42" x2="120" y2="58" />
    <line x1="45" y1="65" x2="57" y2="76" />
    <line x1="155" y1="65" x2="143" y2="76" />
    
    <path d="M 57 100 A 43 43 0 0 1 95 58" />
    <path d="M 105 58 A 43 43 0 0 1 143 100" />
    <path d="M 70 100 A 30 30 0 0 1 130 100" />
    
    <line x1="60" y1="75" x2="70" y2="82" stroke-width="8" />
    <line x1="140" y1="75" x2="130" y2="82" stroke-width="8" />
  </g>
  
  <g fill="#212f35">
    <rect x="25" y="110" width="150" height="12" />
    <rect x="60" y="130" width="80" height="12" />
  </g>
</svg>